<?xml version="1.0" encoding="UTF-8" standalone="no"?>
<svg
   xmlns:dc="http://purl.org/dc/elements/1.1/"
   xmlns:cc="http://creativecommons.org/ns#"
   xmlns:rdf="http://www.w3.org/1999/02/22-rdf-syntax-ns#"
   xmlns:svg="http://www.w3.org/2000/svg"
   xmlns="http://www.w3.org/2000/svg"
   xmlns:sodipodi="http://sodipodi.sourceforge.net/DTD/sodipodi-0.dtd"
   xmlns:inkscape="http://www.inkscape.org/namespaces/inkscape"
   version="1.1"
   id="Layer_1"
   x="0px"
   y="0px"
   viewBox="0 0 99.999996 100"
   xml:space="preserve"
   sodipodi:docname="icon.svg"
   width="100"
   height="100"
   inkscape:version="1.0.1 (3bc2e813f5, 2020-09-07)"><metadata
   id="metadata47"><rdf:RDF><cc:Work
       rdf:about=""><dc:format>image/svg+xml</dc:format><dc:type
         rdf:resource="http://purl.org/dc/dcmitype/StillImage" /><dc:title></dc:title></cc:Work></rdf:RDF></metadata><defs
   id="defs45" /><sodipodi:namedview
   pagecolor="#ffffff"
   bordercolor="#666666"
   borderopacity="1"
   objecttolerance="10"
   gridtolerance="10"
   guidetolerance="10"
   inkscape:pageopacity="0"
   inkscape:pageshadow="2"
   inkscape:window-width="1562"
   inkscape:window-height="846"
   id="namedview43"
   showgrid="false"
   inkscape:zoom="2.238169"
   inkscape:cx="8.5539229"
   inkscape:cy="51.96771"
   inkscape:window-x="0"
   inkscape:window-y="0"
   inkscape:window-maximized="0"
   inkscape:current-layer="Layer_1" />
<style
   type="text/css"
   id="style2">
	.st0{enable-background:new    ;}
	.st1{fill:#FFFFFF;}
</style>



<rect
   style="fill:#6900ff;fill-opacity:1"
   id="rect51"
   width="97.306725"
   height="97.306717"
   x="1.3681381"
   y="2"
   ry="7.898273" /><g
   id="Layer_3"
   style="fill:#ffffff"
   transform="matrix(0.89239942,0,0,0.89479282,-94.61106,2.1856081)">
	<path
   id="path14"
   class="st1"
   d="m 123.3,32.5 0.4,0.7 0.2,0.7 0.4,1.3 0.7,0.5 h 1 v 0.7 l 0.6,0.1 0.4,0.1 c 0.5,-0.2 1.1,-0.4 1.6,-0.6 l 1,-0.6 0.5,-0.3 0.2,-0.2 h 1.8 l 0.4,0.1 v 0.7 l -0.2,0.4 -0.2,0.2 -0.1,0.8 c -0.3,0.7 -1,1.7 -1.3,2.3 l -0.2,0.8 -0.1,2.5 c 0.1,0.5 0.4,1.9 0.6,2.4 l 0.7,2.1 0.6,1.2 -0.1,2.2 0.2,1.6 0.3,1.4 c 0,0 0.6,1.9 0.6,2 0,0.1 1.2,2.8 1.2,2.8 l 0.3,1.4 -0.1,1.3 0.6,0.2 -0.5,1.2 0.3,0.7 1.2,-0.2 0.6,0.7 v 0.5 l 0.2,0.2 -0.2,3.7 0.7,3.4 1,2.8 h 0.2 v 1.2 l 1.1,1.6 1.2,2.8 c 0.2,1.4 0.6,4.2 0.7,5.6 0,0 0.3,3.6 0.3,3.7 l -0.4,0.8 -0.6,0.4 -1.4,0.2 h -2.5 l -3.7,0.4 -1.2,0.3 -0.6,0.3 -3.6,0.1 -1.3,0.2 -0.8,0.6 -0.2,0.6 h 0.9 l 0.8,0.2 c 0.7,0 3.9,-0.1 4.7,-0.1 l 4.2,-0.5 h 3.1 c 1.8,0 5.4,0 7.2,0 l 0.6,-0.4 -0.3,-2 c -0.2,-1.2 -0.6,-3.8 -0.7,-5 C 146.1,84 146,82.6 146,81.2 l 1.3,1.5 0.5,0.9 0.1,1.1 0.5,0.8 1.7,0.2 0.5,0.5 1,-0.1 1,0.6 V 89 l -0.4,1.9 c -0.3,0.5 -1,1.6 -1.3,2.1 l -2.1,0.4 c -1.1,0.1 -2.2,0.2 -3.2,0.1 l -2.3,0.1 h -3 l -0.8,0.4 c -1.1,0.1 -3.2,0.1 -4.3,0.1 l -1.4,0.6 -0.7,0.5 0.1,0.4 0.4,0.4 1.2,0.2 2.4,-0.3 c 2.6,-0.3 15.8,-0.5 18.7,-0.6 l 0.5,-0.4 v -0.8 l -0.2,-0.7 0.7,-6.6 h 1 l 0.6,0.3 c 0.2,0.1 0.3,0.3 0.4,0.5 0,0.1 0.6,0.8 0.6,0.8 l 0.6,0.1 0.5,0.5 0.8,0.6 1.5,0.8 2.5,0.5 3.1,0.3 h 3.9 c 4.1,-0.2 9.7,-0.4 13.8,-0.4 l 2.7,0.1 3.7,-0.2 c 2,0 5.9,-0.3 7.9,-0.6 1.7,-0.2 4.2,-0.3 5.9,-0.6 l 1.3,-0.7 -0.3,-0.7 -0.6,-0.2 -3.3,-0.8 -2.6,-0.6 -2.8,-0.3 c -1.7,0 -5,-0.2 -6.7,-0.3 l -3.1,-0.3 c -2,0.1 -6,0.1 -8,0.1 -1.4,0.1 -4.4,0.3 -5.8,0.5 l -3.1,-0.1 -2,-1.2 -1.5,-1.3 -1.2,-1.8 -0.5,-1.9 -0.4,-3.7 c 0.4,-1.1 1,-3.2 1.3,-4.3 l 0.1,-2.5 0.5,-2.7 c 0,0 0.1,-2.6 0.1,-2.8 0,-0.2 -0.7,-3 -0.7,-3 l -1.2,-3.1 -1.6,-4.2 -1.1,-3.4 -2.3,-3.6 -2.6,-2.8 -2.4,-2.2 -2.5,-1.5 -2.2,-0.7 -1.3,-1 -1.3,-1.4 -1.3,-1.2 -1.6,-1 -3.2,-1.8 -0.8,-1.1 -0.4,-1.9 -0.4,-2 -0.5,-1.3 v -1.2 l 0.5,-1.2 -0.4,-1.7 -0.4,-0.8 0.4,-1.4 0.1,-1.5 -0.4,-1.1 -0.3,-0.5 -0.2,-1.4 -0.6,-1.1 -0.8,-0.4 -0.5,0.3 -0.8,0.1 -0.8,0.8 c -0.2,0.4 -0.7,1.1 -1,1.5 l -0.2,0.9 0.1,1.4 c -0.4,-0.7 -1.2,-2.1 -1.7,-2.8 l -0.5,-1.1 -0.4,-1.2 -0.7,-0.6 h -0.7 l -0.5,0.7 v 0.8 l -0.1,1.3 0.1,1.6 0.5,1.3 c 0,0.6 0,2.5 -0.1,3.1 l -0.4,0.5 -1.3,0.8 -0.8,1 -0.9,0.7 -0.5,0.6 -0.2,0.9 -0.6,1 -0.5,0.8 c -0.9,0.8 -1.7,1.7 -2.5,2.7 z m 27.4,34.6 0.4,6.5 0.6,3.7 0.9,3.2 v 4.8 l -0.3,-4.7 -0.6,-2 -0.9,-4.3 z m -13.6,-8.8 0.4,-1.8 c 0,0.2 0.2,1.4 0.2,1.6 z"
   style="fill:#ffffff" />
</g></svg>
