<?xml version="1.0" encoding="UTF-8" standalone="no"?>
<svg
   xmlns:dc="http://purl.org/dc/elements/1.1/"
   xmlns:cc="http://creativecommons.org/ns#"
   xmlns:rdf="http://www.w3.org/1999/02/22-rdf-syntax-ns#"
   xmlns:svg="http://www.w3.org/2000/svg"
   xmlns="http://www.w3.org/2000/svg"
   xmlns:sodipodi="http://sodipodi.sourceforge.net/DTD/sodipodi-0.dtd"
   xmlns:inkscape="http://www.inkscape.org/namespaces/inkscape"
   version="1.1"
   id="Capa_1"
   x="0px"
   y="0px"
   viewBox="0 0 366.305 366.305"
   style="enable-background:new 0 0 366.305 366.305;"
   xml:space="preserve"
   sodipodi:docname="cart.svg"
   inkscape:version="1.0.1 (3bc2e813f5, 2020-09-07)"><metadata
   id="metadata47"><rdf:RDF><cc:Work
       rdf:about=""><dc:format>image/svg+xml</dc:format><dc:type
         rdf:resource="http://purl.org/dc/dcmitype/StillImage" /></cc:Work></rdf:RDF></metadata><defs
   id="defs45" /><sodipodi:namedview
   pagecolor="#ffffff"
   bordercolor="#666666"
   borderopacity="1"
   objecttolerance="10"
   gridtolerance="10"
   guidetolerance="10"
   inkscape:pageopacity="0"
   inkscape:pageshadow="2"
   inkscape:window-width="711"
   inkscape:window-height="480"
   id="namedview43"
   showgrid="false"
   inkscape:zoom="0.58011767"
   inkscape:cx="125.14416"
   inkscape:cy="183.04404"
   inkscape:window-x="0"
   inkscape:window-y="0"
   inkscape:window-maximized="0"
   inkscape:current-layer="g10" />
<g
   id="g10">
	<g
   id="g8"
   style="fill:#ffffff">
		<path
   style="fill:#ffffff"
   d="M160.336,292.917c-20.167,0-36.579,16.42-36.579,36.579c0,20.167,16.412,36.579,36.579,36.579    s36.579-16.412,36.579-36.579C196.915,309.328,180.511,292.917,160.336,292.917z M160.336,349.817    c-11.201,0-20.321-9.112-20.321-20.321c0-11.201,9.12-20.321,20.321-20.321c11.201,0,20.321,9.12,20.321,20.321    C180.658,340.705,171.545,349.817,160.336,349.817z"
   id="path2" />
		<path
   style="fill:#ffffff"
   d="M274.965,292.917c-20.167,0-36.579,16.42-36.579,36.579c0,20.167,16.412,36.579,36.579,36.579    c20.159,0,36.579-16.412,36.579-36.579C311.544,309.328,295.124,292.917,274.965,292.917z M274.965,349.817    c-11.209,0-20.321-9.112-20.321-20.321c0-11.201,9.112-20.321,20.321-20.321c11.193,0,20.321,9.12,20.321,20.321    C295.287,340.705,286.158,349.817,274.965,349.817z"
   id="path4" />
		<path
   style="fill:#ffffff"
   d="M364.575,92.783c-1.536-1.967-3.894-3.113-6.397-3.113H83.342L60.688,6.23    c-0.049-0.179-0.179-0.317-0.244-0.488c-0.179-0.528-0.447-0.992-0.732-1.463c-0.268-0.447-0.512-0.886-0.853-1.268    c-0.333-0.382-0.723-0.667-1.13-0.975C57.306,1.711,56.9,1.394,56.42,1.158c-0.447-0.228-0.927-0.341-1.422-0.488    c-0.528-0.154-1.04-0.284-1.601-0.325c-0.195-0.008-0.358-0.114-0.561-0.114H8.129C3.642,0.231,0,3.873,0,8.36    s3.642,8.129,8.129,8.129h38.489l22.622,83.334l40.627,164.579c0.894,3.633,4.154,6.186,7.893,6.186h199.768    c3.739,0,6.991-2.544,7.893-6.186l40.643-164.652C366.672,97.319,366.119,94.758,364.575,92.783z M311.17,254.33H124.131    L87.504,105.927h260.301L311.17,254.33z"
   id="path6" />
	</g>
</g>
<g
   id="g12">
</g>
<g
   id="g14">
</g>
<g
   id="g16">
</g>
<g
   id="g18">
</g>
<g
   id="g20">
</g>
<g
   id="g22">
</g>
<g
   id="g24">
</g>
<g
   id="g26">
</g>
<g
   id="g28">
</g>
<g
   id="g30">
</g>
<g
   id="g32">
</g>
<g
   id="g34">
</g>
<g
   id="g36">
</g>
<g
   id="g38">
</g>
<g
   id="g40">
</g>
</svg>
